<?xml version="1.0" encoding="UTF-8" standalone="no"?>
<svg
   width="418"
   height="157"
   viewBox="0 0 418 157"
   version="1.1"
   xml:space="preserve"
   style="clip-rule:evenodd;fill-rule:evenodd;stroke-linejoin:round;stroke-miterlimit:2"
   id="svg4"
   xmlns="http://www.w3.org/2000/svg"
   xmlns:svg="http://www.w3.org/2000/svg"><defs
   id="defs4" />
    
    
    
    
<path
   id="rect77"
   style="stroke:#ffffff;stroke-width:3;stroke-dasharray:none;stroke-opacity:1"
   d="M 0,0 H 418 V 157 H 0 Z" /><path
   style="font-size:143.965px;font-family:'Rubik Glitch';-inkscape-font-specification:'Rubik Glitch';fill:#ffffff;stroke-width:1.49963"
   d="m 145.10385,48.848359 q 0.28783,0.576061 0.57566,1.152123 0.28783,0.432046 0.43175,1.008108 h -5.32484 q 0.28783,0.576062 0.57565,1.440154 0.28783,0.720077 0.57566,1.440154 h -22.59458 l 0.86348,2.880309 h 11.65708 l 0.43175,2.160231 h -1.58307 q 0.14392,0.288031 0.14392,0.720077 0,0.432046 0.14391,0.720077 h -3.88569 l 0.14392,1.440154 h 3.02221 q 0,0.576062 0,1.152124 0.1439,0.432046 0.1439,1.008107 h 5.32485 q 0.14391,0.576062 0.14391,1.008108 0,0.432047 0,1.008108 v 0.144016 h -13.52796 q 0,0.720077 0,1.440154 0.14391,0.720077 0.14391,1.440154 h 3.02221 q 0,0.720077 0,1.440154 0.14391,0.720077 0.14391,1.440154 h 5.18092 v 0.720077 h -2.0148 v 2.880309 h 0.57566 v 2.160231 h 8.49095 v 2.880307 h -8.05921 v 1.440155 h -0.86348 q 0,0.28803 0,0.720077 0,0.432046 -0.14392,0.720077 h -2.59046 v 2.880308 h 0.28783 q -0.14391,0.432046 -0.14391,1.152123 v 0.288031 h 5.32483 q 0,0.576062 -0.14392,1.152124 0,0.432046 0,1.008107 h 2.15873 q 0,0.720078 -0.14392,1.440155 0,0.720077 -0.14391,1.440154 h -3.16612 q -0.14392,0.288031 -0.14392,0.720077 0,0.432046 -0.14391,0.720077 h -17.26976 q 0,0.576062 -0.28783,1.440154 h 15.11104 q -0.28783,0.864093 -0.28783,1.440154 h 2.15872 q -0.14391,0.576062 -0.28783,1.152124 0,0.432046 -0.28783,1.008107 l -0.43174,1.440157 h -4.17353 l -0.28783,0.72007 h 6.76398 q -0.28783,0.57606 -0.28783,0.72008 h -4.31742 l -0.28783,0.72008 h -0.14392 q -0.28783,0.72008 -0.57566,1.44015 -0.28783,0.72008 -0.71957,1.44016 h -2.15872 l -1.58306,2.8803 h 2.44655 l -0.86349,1.44016 h 0.14392 q -0.28783,0.28803 -0.57566,0.72008 -0.28783,0.43204 -0.57566,0.72007 h -1.00741 q -0.43174,0.43205 -0.57566,0.72008 -0.43173,0.57607 -0.86348,1.15213 -0.43174,0.43204 -1.0074,1.0081 h -0.43175 q -0.71957,0.72008 -1.58305,1.44015 -0.71958,0.72009 -1.58307,1.44016 h 1.29524 l -3.02222,2.16023 h 0.14392 q -1.15131,0.72008 -2.44655,1.44016 -1.29523,0.72007 -2.73437,1.44015 h -0.14392 q -1.43915,0.72008 -3.59786,1.44016 h 0.14391 q -2.87829,1.0081 -6.044413,1.72818 -3.166122,0.72007 -6.476157,1.15213 h 3.022206 q -2.302633,0.28803 -4.749182,0.43204 -2.446548,0.14402 -5.037011,0.14402 H 42.348836 q -1.295231,0 -2.014804,-0.57606 h -3.022207 q -1.439146,-0.8641 -1.726975,-2.88031 h -0.143915 v -1.44016 h 0.28783 v -2.88031 h -0.28783 v -2.16023 h -1.151316 v -2.88031 h 0.431743 v -2.16023 h -0.143914 v -0.72008 h 1.151317 v -1.44015 H 35.58485 v -1.44016 h -2.590463 v -2.8803 h 2.302634 v -2.88031 h 0.143914 v -0.72008 h 4.317439 v -0.72008 h -6.620072 v -0.72007 h 4.173523 v -3.600388 h -2.014804 v -1.440154 h -0.143915 v -1.440154 h 3.74178 V 92.77306 H 22.344708 V 89.892751 H 21.769049 V 87.73252 h 1.87089 v -1.440154 h 5.900499 v -2.880308 h 3.741778 v -1.440154 h 2.158719 v -1.440155 h 2.302634 v -2.880307 h 3.310036 v -2.160231 h 3.166121 V 72.610902 H 34.577448 V 71.890825 H 31.411327 V 69.010517 H 25.079085 V 66.130209 H 41.485349 V 63.969977 H 28.820865 v -2.160231 h 6.9079 v -1.440154 h -0.28783 V 58.929438 H 34.289619 V 56.769207 H 28.101292 V 53.888898 H 50.551969 V 51.00859 h 5.32484 V 48.848359 H 29.972182 V 45.96805 H 46.954104 V 45.247973 H 33.570046 v -0.720077 h 27.199859 v -2.880308 h -3.45395 V 40.927511 H 23.064281 v -2.880308 h 4.173523 v -2.160231 h 8.922704 V 35.166895 H 40.90969 V 33.726741 H 38.319228 V 33.006664 H 35.297021 V 31.56651 h 0.287829 v -1.296139 q 0,-0.288031 0,-0.432046 0.143915,-0.288031 0.143915,-0.432047 h 0.575658 q 0.719573,-3.024323 3.885694,-3.024323 h 41.447404 q 11.081425,0 20.148039,3.024323 h -0.57565 q 2.59046,0.864093 5.32484,2.160232 h -0.28783 q 0.71957,0.288031 1.43915,0.720077 0.86349,0.288031 1.43914,0.720077 h 3.02221 l 1.29523,0.720077 h 2.44655 q 0.71957,0.288031 1.15131,0.720077 0.57566,0.432046 1.15132,0.720077 h -4.74918 q 0.28783,0.144016 0.57566,0.288031 0.28783,0.144015 0.43174,0.432046 h -8.92271 l 2.73439,2.160231 h -4.31744 q 1.58305,1.296138 2.87829,2.880308 h 34.25167 q 0.14392,0.144015 0.28782,0.288031 0.14392,0.144015 0.28783,0.432046 h 3.59787 q 0.57566,0.576062 1.15132,1.440154 0.57566,0.720077 1.0074,1.440154 h -27.19986 q 0.14392,0.144016 0.28783,0.288031 0.14392,0.144015 0.28783,0.432046 h 13.38405 l 0.43175,0.720077 h -16.98192 q 1.00741,1.440155 1.58307,2.880309 z M 94.302006,58.929438 Q 93.438519,57.633299 92.143287,56.769207 H 80.486205 Q 77.320083,54.46496 72.714816,54.46496 h -8.634875 v 2.304247 h 6.188328 v 2.160231 h 1.151316 v 1.440154 h 0.287829 v 1.440154 h -6.9079 v 2.160231 h 12.664484 v 2.160232 H 61.057734 v 2.880308 h 6.332243 v 2.880308 h 3.166121 v 0.720077 h 9.642277 v 2.880309 h -3.166121 v 2.160231 h -3.310036 v 2.880307 h -2.302633 v 1.440155 h -2.158718 v 1.440154 h -3.74178 v 2.880308 h -5.900499 v 1.440154 h -1.870889 v 2.160231 h 0.575658 v 2.880309 h 16.550178 v 1.440154 h -3.74178 v 1.440154 h 0.143915 v 1.440154 h 2.014804 v 2.016216 h 9.35445 q 4.173523,0 7.051815,-2.016216 h -2.302634 q 0.431744,-0.288031 0.863488,-0.576061 0.431744,-0.432047 0.719573,-0.864093 H 74.010047 q 0.28783,-0.288031 0.575659,-0.576062 0.287829,-0.432046 0.431744,-0.864092 h 17.269752 q 0.287829,-0.288031 0.431744,-0.576062 0.143914,-0.432046 0.287829,-0.864092 h 3.310036 q 0.287829,-0.720077 0.431743,-1.440154 0.143915,-0.720077 0.28783,-1.440155 h -2.158719 q 0.143914,-0.576061 0.143914,-1.008107 0,-0.576062 0.143915,-1.152124 h -5.32484 v -0.288031 q 0,-0.28803 0,-0.576061 0.143914,-0.288031 0.143914,-0.576062 h -0.287829 q 0,-0.720077 0,-1.440154 0,-0.864093 0.143915,-1.440154 h 2.590462 v -1.440154 h 0.863488 l 0.143915,-1.440155 h 8.059221 v -2.880307 h -8.490965 v -2.160231 h -0.575659 v -2.880309 h 2.014805 v -0.720077 h -5.32484 v -2.880308 h -3.166122 q 0,-0.720077 0,-1.440154 0,-0.720077 -0.143914,-1.440154 h 13.527972 v -0.144016 q 0,-0.576061 -0.143914,-1.008108 0,-0.576061 0,-1.008108 H 93.870262 Q 93.726348,63.393916 93.582433,62.96187 93.438519,62.385808 93.294604,61.809746 H 90.272397 Q 90.128483,61.3777 89.984568,61.089669 89.840654,60.657623 89.696739,60.369592 h 3.885694 Q 93.438519,59.937546 93.150689,59.649515 93.006775,59.217469 92.718946,58.929438 Z M 238.79223,112.93522 h -12.52057 l -1.43915,2.16023 h 11.801 l -1.29523,1.44016 h -9.78619 l -0.71958,0.72007 h 1.29524 q -1.72698,1.72818 -3.45395,2.88031 h 2.30263 q -1.0074,0.72008 -2.30263,1.44015 h -0.71958 l -1.29523,0.72008 h 0.28783 q -0.28783,0.14401 -0.71957,0.28803 -0.43174,0.14401 -0.71957,0.43205 h -0.43175 q -1.43915,0.57606 -3.0222,1.15212 -1.58307,0.57606 -3.31004,1.00811 h 0.28783 q -1.87089,0.43204 -3.74178,0.86409 -1.87089,0.28803 -3.88569,0.57607 h 0.43174 q -2.30264,0.28803 -4.8931,0.43204 -2.44654,0.14402 -5.18093,0.14402 h -49.21879 q -1.29523,0 -2.0148,-0.57606 h -0.57566 q -0.71957,-0.43206 -1.29523,-1.44016 h -0.28783 q -0.43175,-0.86409 -0.43175,-1.8722 v -0.28803 h 0.43175 v -0.72008 h -0.28783 v -0.72008 h 0.71957 v -1.44015 h -2.30263 v -2.88031 h -1.29523 v -0.72007 h 9.78619 v -1.44016 h -11.94491 v -2.16023 h 12.52057 v -2.88031 h -10.36185 v -0.72007 h -0.14392 v -1.44016 h 7.62748 v -1.44015 h -5.32485 v -1.44016 h 4.74919 v -2.16023 h -4.17353 v -2.16023 h 2.59047 v -0.720079 h -2.15872 v -4.320463 h -1.00741 v -1.440154 h 0.71958 v -2.160231 h -0.86348 v -2.160232 h -2.44656 v -1.440154 h -3.0222 v -1.440154 h 7.62747 v -0.720077 h -10.21793 v -0.720077 h 9.64227 v -0.720077 h -2.59046 v -0.720077 h 1.58306 v -1.440154 h -1.0074 v -2.160232 h 0.14392 v -2.160231 h 0.57565 v -0.720076 h 0.43174 v -1.440154 h 3.45395 V 73.33098 h 2.30264 v -2.160232 h -5.32484 V 68.29044 h -1.00741 v -1.440154 h -1.72697 v -2.160231 h 2.30263 v -2.880309 h -3.74178 v -0.720077 h 4.02961 v -0.720077 h 4.8931 v -1.440154 h 2.15872 V 58.209361 H 138.33984 V 56.04913 h 4.02961 v -2.160232 h -0.57566 v -1.440154 h 0.14391 V 51.00859 h -0.43174 v -2.160231 h -0.28782 v -0.720077 h 2.44654 v -0.720077 h -4.60527 v -2.160232 h 1.58307 v -0.720077 h 0.57566 v -3.600385 h 0.71956 v -0.720077 h -8.05921 v -0.720077 h 3.59787 v -2.160231 h 8.05921 v -2.160231 h -12.08882 v -0.720077 h 3.88569 v -1.440154 h 1.0074 v -2.880308 h -0.28783 q 0,-1.152124 0.71957,-2.160232 h 5.18093 q 1.15131,-1.584169 3.02221,-1.584169 h 47.77965 q 4.74917,0 8.77878,0.432046 4.17353,0.432046 7.77139,1.152123 h -5.03701 q 1.87089,0.432047 3.59786,1.008108 1.8709,0.432046 3.31005,1.152124 h 0.28782 q 1.58306,0.576061 2.8783,1.296138 1.29522,0.720077 2.59046,1.58417 h -1.00741 q 0.57566,0.288031 1.00741,0.720077 0.57566,0.432046 1.0074,0.720077 h -3.88569 l 0.86349,0.720077 h 12.08882 q 0.57566,0.576062 1.0074,1.152123 0.57566,0.432047 1.00741,1.008108 h -8.05922 q 0.43174,0.576062 0.86349,1.152124 0.43173,0.432045 0.71956,1.008107 h -3.59786 l 0.43174,0.720077 h 8.05922 l 0.43175,0.720077 h -0.71958 q 0.43175,0.720077 0.71958,1.440154 0.28783,0.576062 0.57566,1.152123 0.28783,0.432047 0.43174,1.008108 h -0.71957 l 0.28783,0.720077 h -1.58307 q 0.28783,0.576062 0.43175,1.152124 0.14391,0.432046 0.28783,1.008108 h 4.60527 q 0,0.144015 0,0.28803 0.14391,0.144016 0.14391,0.432047 h -2.44655 q 0.14391,0.28803 0.14391,0.720077 h 0.28783 l 0.43175,2.160231 h 0.43174 q 0,0.288031 0,0.720077 0,0.432046 0.14392,0.720077 0,0.288031 0,0.720077 0,0.432046 0.14391,0.720077 h -0.14391 q 0.14391,0.576062 0.14391,1.152124 0,0.432046 0,1.008108 h -1.29523 v 0.576061 q 0,0.432046 -0.14392,0.864093 0,0.288031 0,0.720077 h 2.59047 q 0,0.144015 -0.14391,0.288031 0,0.144015 0,0.432046 h -1.58307 l -0.14391,1.440154 h 2.15872 q 0,0.432046 -0.14391,0.720077 h -1.8709 q -0.14391,0.288031 -0.14391,0.720077 -0.43175,1.296139 -1.15132,2.880309 h -2.30263 l -1.15132,2.160231 h 1.72698 q -0.28783,0.288031 -0.57566,0.720077 -0.14392,0.432046 -0.43175,0.720077 h 0.86349 q -1.15132,1.728185 -2.59046,2.880308 h 5.46875 q -1.43914,1.440154 -2.73437,2.160232 h -2.30263 q -1.00741,0.864092 -2.15873,1.296138 0.71958,0.288031 1.43915,0.720077 0.86349,0.432047 1.58306,0.864093 h -3.45395 q 0.86349,0.576062 2.01481,1.440154 h -0.43175 l 0.86349,0.720076 h -0.57566 l 2.15872,2.160231 h -0.14392 q 0.43175,0.576062 0.86349,1.152124 0.43175,0.432046 0.71958,1.008108 h 1.00739 l 0.86349,1.440154 h -1.58305 l 0.43174,0.720077 h 2.59046 q 0,0.144015 0.28783,0.720077 h -9.64228 l 0.43174,0.720077 h 10.21794 q 0,0.144015 0.28783,0.720077 h -7.62747 q 0.28782,0.288031 0.28782,0.720077 0.14392,0.432046 0.28783,0.720077 h 5.32485 l 0.43174,1.440154 h 0.71958 l 0.43173,2.160232 h -0.14391 q 0.14391,0.576061 0.14391,1.152123 0.14392,0.432046 0.14392,1.008108 h -0.14392 v 1.440154 h -0.14391 v 1.440154 h 0.57566 q 0,0.720077 -0.14392,1.440154 0,0.720077 -0.14391,1.440155 h 4.17352 q 0,0.144019 -0.14391,0.288029 0,0.14402 0,0.43205 h -4.02961 q -0.14392,0.57606 -0.14392,1.15212 0,0.43205 -0.14391,1.00811 h 4.02961 l -0.43175,2.16023 h -4.74917 l -0.43175,1.44016 h 5.46875 l -0.57565,1.44015 h -7.62747 q -0.14392,0.28803 -0.28783,0.72007 0,0.43205 -0.28783,0.72009 h 0.14391 q 0,0.14401 -0.28783,0.72007 h 10.36185 q -0.57566,1.44015 -1.58306,2.88031 z M 174.17457,61.089669 v 0.720077 h 3.74178 v 2.448262 h 12.08883 q 3.31004,0 4.74919,-2.448262 l 0.43174,-0.720077 h 1.87089 l 0.28783,-0.720077 h -2.30263 l 0.43173,-1.440154 h 1.58307 v -0.720077 h -2.59046 q 0.14391,-0.144016 0.14391,-0.432046 0,-0.432047 -0.14391,-0.864093 0,-0.432046 -0.14392,-0.864092 h 1.43914 q -0.14391,-1.152124 -0.86348,-2.160232 -0.14391,-0.432046 -0.57566,-0.720077 -0.28783,-0.432046 -0.57566,-0.720077 -0.71957,-0.576062 -1.72698,-0.864092 -0.86348,-0.432047 -2.0148,-0.432047 h -12.08883 v 1.296139 h -0.14391 v 1.440154 h 0.57566 v 2.160232 h -4.02961 v 2.160231 H 185.256 v 0.720077 h -2.15872 v 1.440154 h -4.8931 v 0.720077 z m 4.17353,38.884162 h 2.15872 v 0.720079 h -2.59047 v 1.72819 h 13.38407 q 1.58305,0 2.59046,-0.43206 1.15132,-0.57606 2.0148,-1.29613 h 4.02961 q 0.14391,-0.28803 0.28783,-0.43205 0.14391,-0.14401 0.28783,-0.288029 h -4.02961 q 0.86349,-1.296139 1.29523,-2.880309 h -0.57566 q 0.14392,-0.288031 0.14392,-0.720077 0,-0.432046 0,-0.720077 h 0.14391 v -1.440154 h 0.14392 q -0.14392,-0.576062 -0.28783,-1.008108 -0.14392,-0.576062 -0.43175,-1.152123 h 0.14392 q -0.71958,-1.440154 -1.58307,-2.160232 h -0.71956 q -1.00741,-1.008107 -2.8783,-1.440154 h -5.32484 q -0.43174,-0.144015 -1.43915,-0.144015 h -13.38405 v 0.144015 h 3.0222 v 1.440154 h 2.44656 v 2.160232 h 0.86348 v 2.160231 h -0.71958 v 1.440154 h 1.00741 z"
   id="text2"
   aria-label="DB" /><path
   d="m 322.87007,114.93849 h -3.51647 v 2.13268 h 0.95904 v 1.06635 h 0.21311 v 2.13268 h 0.74592 v 0.53317 h 0.63937 v 1.06634 h 1.59839 v 1.59952 q 0,0.31991 -0.10657,0.53317 -0.21311,1.59952 -1.70495,2.13269 h -0.95903 q -0.63936,0.21327 -1.0656,0.21327 h -64.46861 q -0.42624,0 -1.0656,-0.21327 h 0.95904 q -1.49183,-0.53317 -1.81151,-2.13269 v -2.13269 h -1.5984 v -1.06634 h -0.63936 v -0.53317 h -0.74592 v -2.13268 h -0.21311 v -1.06635 h -0.95905 v -2.13268 h 3.51647 v -0.53318 h 0.85248 v -1.06634 h -4.4755 v -0.53317 h 1.81152 v -1.59952 h -0.42624 v -2.13269 h 0.10655 v -0.74644 q 0,-0.53316 0.10656,-0.85307 h -0.63935 q 0.74591,-2.02606 2.77054,-2.02606 h 64.46862 q 2.23774,0 2.77055,2.02606 h 0.53279 q 0.10656,0.21327 0.10656,0.42654 0.10657,0.21327 0.10657,0.42653 v 0.74644 h -0.10657 v 2.13269 h 0.42624 v 1.59952 h -1.81151 v 0.53317 h 4.4755 v 1.06634 h -0.85247 z m 77.25581,0 h -3.51647 v 2.13268 h 0.95904 v 1.06635 h 0.21312 v 2.13268 h 0.74591 v 0.53317 h 0.63936 v 1.06634 h 1.5984 v 1.59952 q 0,0.31991 -0.10656,0.53317 -0.21312,1.59952 -1.70495,2.13269 h -0.95904 q -0.63936,0.21327 -1.0656,0.21327 h -64.46861 q -0.42624,0 -1.0656,-0.21327 h 0.95904 q -1.49183,-0.53317 -1.81152,-2.13269 v -2.13269 h -1.59839 v -1.06634 h -0.63935 v -0.53317 h -0.74592 v -2.13268 h -0.21313 v -1.06635 h -0.95903 v -2.13268 h 3.51647 v -0.53318 h 0.85248 v -1.06634 h -4.47551 v -0.53317 h 1.81151 v -1.59952 h -0.42623 v -2.13269 h 0.10655 v -0.74644 q 0,-0.53316 0.10657,-0.85307 h -0.63936 q 0.74592,-2.02606 2.77055,-2.02606 h 64.4686 q 2.23776,0 2.77056,2.02606 h 0.5328 q 0.10656,0.21327 0.10656,0.42654 0.10656,0.21327 0.10656,0.42653 v 0.74644 h -0.10656 v 2.13269 h 0.42624 v 1.59952 h -1.81152 v 0.53317 h 4.47551 v 1.06634 h -0.85248 z"
   id="text7"
   style="font-size:106.597px;font-family:'Rubik Glitch';-inkscape-font-specification:'Rubik Glitch';fill:#b3b3b3;stroke-width:0.999344"
   aria-label="__" /><path
   d="m 320.34063,53.723284 h 8.15184 q 0,0.119964 -0.11989,0.239928 -0.11987,0.119964 -0.23975,0.359892 h -2.75725 q -0.95903,1.19964 -2.63735,1.19964 h -23.37661 q -1.67832,0 -2.63735,-1.19964 h 2.75723 l -0.35963,-0.59982 h -8.27173 l -0.35964,-0.59982 q -0.11988,-0.479856 -0.5994,-1.19964 h -2.03796 q -0.71928,-1.319604 -1.55844,-1.79946 h 2.997 q -0.95903,-0.59982 -2.27771,-0.59982 -1.43857,0 -2.3976,0.59982 h -2.51749 q -0.95904,0.479856 -1.55844,1.79946 h -1.07892 q -0.23975,0.479856 -0.47952,1.19964 h 6.47352 q -0.11988,0.239928 -0.11988,0.59982 h 3.23676 q -0.11988,0.239928 -0.11988,0.59982 h 3.95605 q -0.11989,0.239928 -0.11989,0.59982 0,0.359892 -0.11988,0.59982 h 0.47952 v 0.59982 h -4.67532 v 1.19964 h -14.985 v 0.59982 h 23.01697 q -0.11989,0.59982 -0.11989,1.19964 0,0.59982 0,1.19964 h -21.21876 v 0.59982 h 8.51148 v 0.59982 h -2.27772 v 2.39928 h -6.47351 q 0,0.479856 0,0.959712 0,0.359892 0.11987,0.839748 v 1.19964 h 7.1928 q 0,0.839748 0.11988,1.19964 h -6.5934 q 0.23976,1.559532 0.47952,2.39928 h -1.31867 q 0.71927,1.679496 2.03795,2.39928 h 3.95605 q 0.95903,0.359892 2.03795,0.359892 1.31868,0 2.15785,-0.359892 h 1.67831 q 1.07892,-0.59982 2.03797,-2.39928 h -3.23677 l 0.35964,-0.839748 q 0.23976,-0.479856 0.47952,-0.839748 0.35964,-0.479856 0.5994,-0.719784 h 8.39161 q 1.07892,-0.839748 2.3976,-0.839748 h 23.3766 q 1.1988,0 2.27771,0.839748 h -8.39159 q 1.1988,0.959712 0.95904,2.39928 h 3.23676 q -0.11989,0.479856 -0.23976,1.079676 0,0.59982 -0.23976,1.319604 h -1.7982 l -0.35964,1.19964 h 7.67232 l -0.23977,0.59982 h -2.51748 l -0.23975,0.59982 h -13.30668 l -0.35965,0.59982 h 14.50548 l -1.31867,2.399279 h 1.1988 l -0.35964,0.59982 h -8.991 q -0.35964,0.59982 -0.83917,1.19964 -0.35963,0.59982 -0.83915,1.19964 h -2.15785 q -0.11987,0.119964 -0.23975,0.239928 -0.11988,0.119964 -0.23977,0.359892 h 8.27173 q -0.11988,0.119964 -0.23976,0.239928 -0.11988,0.119964 -0.23977,0.359892 h -5.994 q -0.11988,0.119964 -0.23975,0.239928 -0.11988,0.119964 -0.35965,0.359891 h 5.03497 l -1.1988,1.19964 h -0.5994 l -0.5994,0.59982 h 1.43855 l -1.43855,1.19964 h 2.15783 q -0.5994,0.479856 -1.31868,0.959712 -0.5994,0.359892 -1.31867,0.839748 h 2.3976 l -0.95905,0.59982 h -2.63735 l -2.15785,1.19964 h 0.71929 q -1.91809,1.079676 -4.31569,1.79946 h -2.03795 q -1.07893,0.359892 -2.15785,0.719784 -1.07891,0.239928 -2.15783,0.479856 h -1.07893 q -0.83915,0.119964 -1.67832,0.239928 -0.83915,0.239928 -1.67832,0.359892 h 2.3976 q -1.67831,0.239928 -3.47651,0.359892 -1.7982,0.119964 -3.71629,0.119964 -1.7982,0 -3.47651,-0.119964 -1.67833,-0.119964 -3.35665,-0.359892 h -2.51748 q -0.83916,-0.119964 -1.67832,-0.359892 -0.71928,-0.119964 -1.55844,-0.239928 h 1.07892 q -1.07892,-0.239928 -2.15783,-0.479856 -1.07893,-0.359892 -2.03797,-0.719784 h 2.03797 q -2.27773,-0.719784 -4.19581,-1.79946 h -0.83916 q -0.47952,-0.239928 -1.07892,-0.479856 -0.47952,-0.359892 -0.95904,-0.719784 h 2.51748 l -0.95904,-0.59982 h -2.3976 l -2.3976,-1.79946 h -2.03796 q -0.35964,-0.239928 -0.71928,-0.59982 -0.35964,-0.359892 -0.5994,-0.59982 h -1.55844 l -0.5994,-0.59982 h 0.5994 l -1.1988,-1.19964 h -4.91508 q -0.35965,-0.359891 -0.47952,-0.599819 h 5.994 q -0.35964,-0.359892 -0.47953,-0.59982 h -8.3916 q -0.11987,-0.239928 -0.47951,-0.59982 h 2.15784 q -0.47953,-0.59982 -0.83916,-1.19964 -0.35964,-0.59982 -0.71928,-1.19964 h 8.991 l -0.35964,-0.59982 h -1.1988 q -0.35965,-0.59982 -0.71928,-1.19964 -0.23977,-0.59982 -0.47952,-1.199639 h -14.3856 l -0.23976,-0.59982 h 13.30668 l -0.23977,-0.59982 h 2.51749 l -0.23976,-0.59982 h -7.67233 l -0.35963,-1.19964 h -3.95605 q -0.11987,-0.59982 -0.23975,-1.19964 -0.11988,-0.59982 -0.23977,-1.19964 h 1.1988 l -0.35963,-2.39928 h 6.5934 v -1.19964 h -7.1928 v -0.59982 q -0.11988,-0.59982 -0.11988,-1.19964 0,-0.59982 0,-1.19964 h 6.47351 v -2.39928 h 2.27773 v -0.59982 h -8.51148 v -0.59982 h 21.21876 v -2.39928 h -22.89709 v -0.59982 h 14.98501 v -1.19964 h 4.67532 v -0.59982 h -0.47952 q 0.11988,-0.239928 0.11988,-0.59982 0,-0.359892 0,-0.59982 h -3.83616 v -0.59982 h -3.23676 q 0,-0.359892 0.11988,-0.59982 h -6.47352 q 0.23975,-0.719784 0.23975,-1.19964 h 1.1988 l 0.35965,-1.79946 h 2.51748 l 0.71927,-2.39928 h 0.23977 q 0.11988,-0.479856 0.35963,-0.839748 0.23977,-0.479855 0.35965,-0.959711 h -0.5994 q 0.23975,-0.59982 0.47952,-1.19964 0.35963,-0.719784 0.71928,-1.19964 h -0.71928 q 0.23976,-0.479856 0.47952,-0.839748 0.35964,-0.479856 0.71928,-0.959712 h 0.11988 q 0.47952,-0.59982 0.95904,-1.19964 0.47951,-0.719784 0.95904,-1.19964 h 0.11987 q 0.71929,-0.959712 1.79821,-1.79946 h -0.59941 l 0.71929,-0.59982 h -0.23976 l 0.71928,-0.59982 h 4.43556 q 0.23976,-0.239928 0.47952,-0.359892 0.23976,-0.119964 0.35964,-0.239928 h -2.63736 q 0.23976,-0.239928 0.47952,-0.359892 0.23976,-0.119963 0.35964,-0.239927 h -0.95904 q 2.15784,-1.439568 4.1958,-2.39928 h 2.3976 q 0.71928,-0.359892 1.43856,-0.59982 0.71928,-0.359892 1.43856,-0.59982 h -2.75724 q 0.47952,-0.239928 0.83916,-0.359892 0.47952,-0.119964 0.95904,-0.239928 h -0.11988 q 0.5994,-0.239928 1.07892,-0.359892 0.5994,-0.119964 1.07892,-0.239928 h -0.35963 q 5.27471,-1.319604 11.02895,-1.319604 3.23676,0 6.11388,0.359892 2.87712,0.359892 5.3946,0.959712 h 0.35965 q 0.5994,0.119964 1.07892,0.239928 0.5994,0.119964 1.07891,0.359892 h 0.11989 q 0.47951,0.119964 0.83915,0.239928 0.47953,0.119964 0.95905,0.359892 h 2.75723 q 1.7982,0.59982 2.997,1.19964 h -2.51747 q 1.1988,0.479856 2.27772,1.19964 1.07892,0.59982 2.15783,1.19964 h 0.95905 q 0.23975,0.119964 0.47952,0.239927 0.23975,0.119964 0.35963,0.359892 h 2.63737 q 0.23975,0.119964 0.35963,0.239928 0.23977,0.119964 0.47952,0.359892 h -4.43555 l 0.71928,0.59982 h 0.23975 l 0.71929,0.59982 h 0.47951 q 0.5994,0.479856 1.07892,0.959712 0.47953,0.359892 0.95905,0.839748 h -0.11988 q 0.5994,0.59982 1.07891,1.19964 0.5994,0.59982 1.07893,1.19964 h -0.11988 q 0.35964,0.479856 0.71928,0.959712 0.35964,0.359892 0.5994,0.839748 h 0.71927 q 0.47953,0.59982 0.83917,1.19964 0.35963,0.59982 0.5994,1.19964 h 0.71928 q 0.23975,0.479856 0.47952,0.959711 0.23976,0.359892 0.35963,0.839748 h -0.11987 q 0.23976,0.59982 0.47952,1.19964 0.23975,0.59982 0.35964,1.19964 h -2.997 l 0.35964,1.79946 h 2.03796 v 1.19964 z m 76.6033,28.191539 h -4.91508 q -0.71929,1.199639 -1.67832,2.399279 h 2.15783 q -0.11988,0.239928 -0.47951,0.59982 h -5.27472 q -0.47952,0.479856 -0.95905,0.959712 -0.35963,0.359892 -0.95903,0.839748 h -0.11989 q -0.5994,0.479856 -1.31868,0.959712 -0.5994,0.359892 -1.31867,0.839748 h -2.15785 q -1.07891,0.719784 -2.39759,1.319604 -1.31869,0.479856 -2.63737,1.079676 h -0.47952 q -0.35963,0.119964 -0.83915,0.239928 -0.35965,0.119964 -0.95905,0.359892 h 13.66633 q -0.47953,0.119964 -1.07893,0.239928 -0.47952,0.119964 -1.07892,0.359892 h -5.994 q -1.55843,0.359892 -3.23676,0.59982 -1.67832,0.359892 -3.47652,0.59982 h -3.5964 q -1.91808,0.239928 -4.07591,0.359892 -2.15785,0.119964 -4.55545,0.119964 -2.27772,0 -4.31568,-0.119964 -1.91807,-0.119964 -3.71627,-0.359892 h 3.47651 q -1.67831,-0.239928 -3.23676,-0.59982 -1.55844,-0.239928 -2.997,-0.59982 h 5.994 l -2.03795,-0.59982 h -13.66633 q -0.35964,-0.239928 -0.83916,-0.359892 -0.35964,-0.119964 -0.83916,-0.239928 h 0.35964 q -1.31868,-0.59982 -2.63736,-1.19964 -1.1988,-0.59982 -2.3976,-1.19964 h 2.15784 q -0.71928,-0.479856 -1.43856,-0.839748 -0.5994,-0.479856 -1.1988,-0.959712 h 0.23976 q -0.5994,-0.479856 -1.07892,-0.839748 -0.47952,-0.479856 -0.95904,-0.959712 h 5.15484 q -0.11988,-0.239928 -0.23976,-0.359892 -0.11988,-0.119964 -0.23976,-0.239928 h -2.27772 q -0.47952,-0.59982 -0.95904,-1.19964 -0.47952,-0.599819 -0.95904,-1.199639 h 5.03496 q -0.47952,-0.59982 -0.71928,-1.19964 -0.23976,-0.719784 -0.47952,-1.19964 h -2.27772 q -0.23976,-0.479856 -0.23976,-0.59982 h -3.71628 l -0.35964,-1.19964 h -2.75724 q -0.11988,-0.359892 -0.11988,-1.079676 0,-0.959711 0.11988,-1.319603 h 0.83915 q 0.5994,-1.439568 1.91809,-1.79946 h -0.23976 q 0.23976,-0.119964 0.83916,-0.119964 h 21.33864 q 0.11988,0 0.23977,0.119964 0.23975,0 0.35963,0 h 0.23977 q 0.95903,0.239928 1.67831,0.719784 0.83916,0.479856 1.67832,1.079676 h -0.71928 q 0.95905,0.59982 2.03796,1.199639 1.07892,0.479856 2.51749,0.479856 0.95903,0 1.7982,-0.359892 0.83915,-0.479855 0.95903,-1.319603 h 0.35965 V 75.19684 q 0,-1.079676 -0.47953,-1.679496 -0.47952,-0.719784 -1.55844,-1.19964 h -1.43856 q -1.1988,-0.59982 -3.23675,-1.19964 -1.91809,-0.59982 -5.3946,-1.19964 h 1.07891 L 347.913,69.558532 q -0.95903,-0.239928 -1.91808,-0.359892 -0.95904,-0.239928 -1.91808,-0.479856 h 0.47953 l -2.03797,-0.59982 h 0.23977 q -1.55845,-0.479856 -2.99701,-1.079676 -1.43856,-0.59982 -2.75724,-1.319604 h 0.47952 l -2.87712,-1.79946 h -0.23976 q -0.83916,-0.59982 -1.55844,-1.19964 -0.5994,-0.59982 -1.1988,-1.19964 h -2.51748 q -0.11988,-0.239928 -0.23976,-0.359892 -0.11988,-0.119964 -0.23976,-0.239928 h 1.07892 q -0.35964,-0.359892 -0.47952,-0.59982 h -3.35665 l -1.31867,-1.79946 h 5.15484 l -0.71928,-1.19964 h -1.67832 q -0.5994,-1.319604 -0.95904,-2.39928 h 0.71927 q 0,-0.239928 -0.11987,-0.359892 0,-0.119964 0,-0.239928 h 5.63436 q 0,-0.479856 -0.23976,-1.19964 h -10.54944 q 0,-0.479856 0,-0.839748 -0.11989,-0.479856 -0.23976,-0.959712 h 0.11987 l -0.11987,-1.19964 h 8.03196 q -0.11988,-0.239928 -0.11988,-0.59982 0,-0.479856 0,-0.839748 0.11988,-0.479856 0.11988,-0.959712 H 323.937 l 0.11987,-1.199639 h 5.39461 l 0.35964,-1.19964 h -2.3976 q 0.11988,-0.239928 0.23975,-0.59982 0.11989,-0.359892 0.23977,-0.59982 H 326.934 q 0.23976,-0.479856 0.47952,-0.839748 0.23975,-0.479856 0.35964,-0.959712 h 0.47952 l 0.71928,-1.19964 h -0.11988 q 0.23976,-0.479856 0.5994,-0.839748 0.35964,-0.479856 0.71928,-0.959712 0.35964,-0.479856 0.71928,-0.839748 0.35964,-0.479856 0.83916,-0.959712 h -0.23976 l 0.5994,-0.59982 h -0.11988 q 0.11988,-0.239928 0.23976,-0.359892 0.23976,-0.119964 0.35964,-0.239928 h 0.23976 l 1.43856,-1.199639 q 0.23976,-0.239928 0.35964,-0.359892 0.23976,-0.119964 0.47952,-0.239928 h -2.27772 q 2.03796,-1.319604 4.43556,-2.39928 h 3.71628 q 0.35964,-0.239928 0.71928,-0.359892 0.35964,-0.119964 0.83916,-0.239928 h -8.15184 q 0.47952,-0.239928 0.83916,-0.359892 0.47952,-0.119964 0.95904,-0.239928 h 5.15484 q 2.997,-0.959712 6.35364,-1.439568 3.47653,-0.479856 7.31268,-0.479856 3.95605,0 7.43256,0.479856 3.47652,0.479856 6.47352,1.439568 h -5.15483 q 0.47951,0.119964 0.83915,0.239928 0.47953,0.119964 0.95905,0.359892 h 8.03196 l 1.67832,0.59982 h -3.71628 q 1.31868,0.479856 2.51748,1.19964 1.1988,0.59982 2.27772,1.19964 h 2.27771 l 0.95905,0.59982 h 0.11987 q 0.47953,0.239927 0.83916,0.599819 0.47952,0.359892 0.83917,0.59982 h -0.11988 l 0.71928,0.59982 h 0.11988 l 0.71927,0.59982 h 0.23977 q 1.07891,0.839748 1.7982,1.79946 0.95903,0.839748 1.43856,1.79946 h 0.11987 l 0.71928,1.19964 h -0.5994 q 0.23977,0.479856 0.47952,0.959712 0.23977,0.359892 0.35965,0.839748 h 0.83915 l 0.35965,1.19964 h 2.27772 l 0.11988,0.839748 v 0.359892 h 2.03795 q 0,0.479855 -0.23975,1.199639 -0.83917,1.679496 -2.3976,1.679496 h -20.13985 q -1.1988,0 -2.27771,-0.479856 -0.95905,-0.59982 -1.91809,-1.19964 -0.83916,-0.59982 -1.91808,-1.199639 h -2.03795 q -1.1988,-0.719784 -2.63737,-0.719784 -1.1988,0 -1.91808,0.719784 h -5.27472 q -0.5994,0.599819 -0.5994,1.199639 h 5.63437 q 0,0.59982 0.23975,1.19964 0.23977,0.59982 1.07892,1.19964 h -7.91208 q 0.5994,0.239928 1.31868,0.59982 0.71928,0.359892 1.7982,0.59982 h -0.11988 q 1.43856,0.479856 3.59641,0.839748 2.27772,0.359892 5.27472,0.839748 0.23975,0 0.35963,0.119964 0.23977,0 0.35965,0 h 10.54943 q 1.43857,0.239928 2.75725,0.59982 1.43855,0.239928 2.63735,0.59982 h -5.63435 q 0.47952,0.119964 0.83915,0.239928 0.47952,0.119964 0.95905,0.359892 h -0.71928 q 1.55843,0.479856 2.75723,1.079676 1.31868,0.59982 2.51748,1.319604 h 1.7982 l 1.91809,1.19964 h -5.15485 q 0.5994,0.479856 1.1988,0.959712 0.5994,0.359892 1.07893,0.839748 h 3.35663 l 0.5994,0.59982 h -1.07891 l 0.5994,0.59982 h 2.3976 q 1.31868,1.319604 1.91808,2.39928 h 0.23975 q 0.35965,0.479856 0.5994,0.959712 0.23977,0.359892 0.47953,0.839748 h -0.47953 q 0.23977,0.59982 0.47953,1.19964 0.35964,0.59982 0.47952,1.19964 h -0.35965 l 0.23977,0.59982 h -0.47952 q 0.11988,0.239928 0.11988,0.59982 0,0.359892 0.11987,0.59982 h -1.07892 q 0.35965,1.19964 0.35965,2.39928 h 1.55844 v 0.839748 q 0,0.479856 -0.11989,1.079676 0,0.479856 0,1.079676 h -0.35963 q -0.11988,0.59982 -0.23977,1.199639 0,0.59982 -0.23975,1.19964 h 2.75724 q 0,0.59982 -0.35964,1.19964 h 3.83615 q -0.23975,0.479856 -0.23975,0.59982 h 2.27772 q -0.23977,0.59982 -0.5994,1.19964 -0.23977,0.59982 -0.5994,1.19964 z"
   id="text8"
   style="font-size:119.922px;font-family:'Rubik Glitch';-inkscape-font-specification:'Rubik Glitch';fill:#ffffff;stroke-width:0.999344"
   aria-label="cs" /></svg>
